<svg width="153" height="76" viewBox="0 0 153 76" fill="none" xmlns="http://www.w3.org/2000/svg">
<rect width="152.75" height="75.4" fill="#0257A7"/>
<ellipse cx="75.7246" cy="37.375" rx="66.625" ry="28.925" fill="#FFDC01"/>
<path d="M43.5138 48.1499H26.0418C25.7992 48.1499 25.6778 48.0286 25.6778 47.7859V27.8179C25.6778 27.5752 25.7992 27.4539 26.0418 27.4539H33.9198C34.1798 27.4539 34.3098 27.5752 34.3098 27.8179V41.3899H43.5138C43.7565 41.3899 43.8778 41.5199 43.8778 41.7799V47.7859C43.8778 48.0286 43.7565 48.1499 43.5138 48.1499ZM55.5681 48.1499H47.6641C47.4214 48.1499 47.3001 48.0286 47.3001 47.7859V27.8179C47.3001 27.5752 47.4214 27.4539 47.6641 27.4539H55.5681C55.8108 27.4539 55.9321 27.5752 55.9321 27.8179V47.7859C55.9321 48.0286 55.8108 48.1499 55.5681 48.1499ZM80.0467 48.1499H71.9087C71.77 48.1499 71.6573 48.0806 71.5707 47.9419L68.8147 43.1059C68.7453 43.1926 68.6587 43.3139 68.5547 43.4699C68.4507 43.6259 68.3293 43.8079 68.1907 44.0159V47.7859C68.1907 48.0286 68.0693 48.1499 67.8267 48.1499H59.9747C59.7147 48.1499 59.5847 48.0286 59.5847 47.7859V27.8179C59.5847 27.5752 59.7147 27.4539 59.9747 27.4539H67.8267C68.0693 27.4539 68.1907 27.5752 68.1907 27.8179V33.1739L71.7007 27.6359C71.77 27.5146 71.8827 27.4539 72.0387 27.4539H79.8647C80.1073 27.4539 80.2287 27.5752 80.2287 27.8179C80.2287 27.9046 80.2027 27.9826 80.1507 28.0519L74.2227 36.6319L80.3847 47.6039C80.4193 47.7079 80.4367 47.7686 80.4367 47.7859C80.4367 48.0286 80.3067 48.1499 80.0467 48.1499ZM101.749 48.1499H83.731C83.471 48.1499 83.341 48.0286 83.341 47.7859V27.8179C83.341 27.5752 83.471 27.4539 83.731 27.4539H101.749C102.009 27.4539 102.139 27.5752 102.139 27.8179V33.8759C102.139 34.1186 102.009 34.2399 101.749 34.2399H91.973V35.5399H99.149C99.3916 35.5399 99.513 35.6612 99.513 35.9039V39.7259C99.513 39.9686 99.3916 40.0899 99.149 40.0899H91.973V41.3899H101.749C102.009 41.3899 102.139 41.5199 102.139 41.7799V47.7859C102.139 48.0286 102.009 48.1499 101.749 48.1499ZM128.037 48.1499H119.873C119.682 48.1499 119.561 48.0632 119.509 47.8899L118.755 45.5499H112.905C112.818 45.8446 112.714 46.1826 112.593 46.5639C112.471 46.9452 112.315 47.3872 112.125 47.8899C112.073 48.0632 111.96 48.1499 111.787 48.1499H105.235C105.096 48.1499 104.992 48.0979 104.923 47.9939C104.836 47.9072 104.819 47.7946 104.871 47.6559L112.281 27.7139C112.35 27.5406 112.471 27.4539 112.645 27.4539H120.549C120.705 27.4539 120.817 27.5406 120.887 27.7139L128.401 47.6559C128.435 47.7599 128.427 47.8726 128.375 47.9939C128.288 48.0979 128.175 48.1499 128.037 48.1499ZM117.013 40.4799L115.765 36.7359C115.626 37.1346 115.453 37.6459 115.245 38.2699C115.054 38.8766 114.82 39.6132 114.543 40.4799H117.013Z" fill="#0257A7"/>
<path d="M119.938 24.1499V20.8929H121.382C121.673 20.8929 121.893 20.9225 122.044 20.9818C122.195 21.0396 122.316 21.1425 122.407 21.2906C122.497 21.4387 122.542 21.6024 122.542 21.7816C122.542 22.0126 122.467 22.2074 122.318 22.3659C122.168 22.5244 121.937 22.6251 121.625 22.668C121.739 22.7228 121.825 22.7769 121.884 22.8302C122.01 22.9458 122.13 23.0902 122.242 23.2635L122.809 24.1499H122.267L121.836 23.4723C121.71 23.2768 121.606 23.1272 121.525 23.0235C121.443 22.9198 121.37 22.8473 121.305 22.8058C121.241 22.7643 121.176 22.7354 121.109 22.7191C121.06 22.7088 120.98 22.7036 120.869 22.7036H120.369V24.1499H119.938ZM120.369 22.3303H121.296C121.493 22.3303 121.647 22.3104 121.758 22.2704C121.869 22.2289 121.953 22.1637 122.011 22.0749C122.069 21.9845 122.098 21.8868 122.098 21.7816C122.098 21.6276 122.041 21.5009 121.929 21.4017C121.818 21.3024 121.642 21.2528 121.4 21.2528H120.369V22.3303Z" fill="#0257A7"/>
<path d="M123.971 22.4251C123.971 23.9418 122.742 25.1714 121.225 25.1714C119.708 25.1714 118.479 23.9418 118.479 22.4251C118.479 20.9084 119.708 19.6789 121.225 19.6789C122.742 19.6789 123.971 20.9084 123.971 22.4251Z" stroke="#0257A7" stroke-width="0.3575"/>
</svg>
